<?xml version="1.0" encoding="UTF-8" standalone="no"?>
<svg
   version="1.1"
   width="180"
   height="200"
   viewBox="0 0 180 200"
   xml:space="preserve"
   id="svg13"
   sodipodi:docname="logo.svg"
   inkscape:version="1.3.2 (091e20e, 2023-11-25, custom)"
   inkscape:export-filename="logo.png"
   inkscape:export-xdpi="960.46997"
   inkscape:export-ydpi="960.46997"
   xmlns:inkscape="http://www.inkscape.org/namespaces/inkscape"
   xmlns:sodipodi="http://sodipodi.sourceforge.net/DTD/sodipodi-0.dtd"
   xmlns="http://www.w3.org/2000/svg"
   xmlns:svg="http://www.w3.org/2000/svg"><sodipodi:namedview
   id="namedview13"
   pagecolor="#ffffff"
   bordercolor="#000000"
   borderopacity="0.25"
   inkscape:showpageshadow="2"
   inkscape:pageopacity="0.0"
   inkscape:pagecheckerboard="0"
   inkscape:deskcolor="#d1d1d1"
   inkscape:zoom="1.9714137"
   inkscape:cx="62.13815"
   inkscape:cy="94.602163"
   inkscape:window-width="1920"
   inkscape:window-height="991"
   inkscape:window-x="2392"
   inkscape:window-y="1341"
   inkscape:window-maximized="1"
   inkscape:current-layer="g14" />
<desc
   id="desc1">Created with Fabric.js 3.6.3</desc>
<defs
   id="defs1">
</defs>

<g
   id="g14"
   transform="translate(8.4863229,-1.9243714)"><g
     id="g2"
     transform="matrix(1.0923985,0,0,1.0923985,-6.517238,-1.4447117)"><g
       transform="matrix(1.1758366,0,0,1.1758366,81.513677,62.103312)"
       id="g9">
<path
   style="opacity:1;fill:#fd7400;fill-rule:nonzero;stroke:none;stroke-width:0;stroke-linecap:butt;stroke-linejoin:miter;stroke-miterlimit:4;stroke-dasharray:none;stroke-dashoffset:0"
   transform="translate(-49.999687,-50.00035)"
   d="M 31.301,32.512 H 68.75 c 3.1602,-0.0078 5.7227,-2.5703 5.7305,-5.7305 V 22.801 h 12.5 V 46.758 L 81.25,46.7619 v 7.293 h 9.2812 V 54.051 c 2.0117,0 3.6445,-1.6328 3.6445,-3.6445 v -31.25 c 0,-0.96875 -0.38281,-1.8945 -1.0664,-2.5781 -0.68359,-0.6836 -1.6094,-1.0664 -2.5781,-1.0664 h -16.105 v -3.9688 c 0,-3.1445 -2.5312,-5.7031 -5.6758,-5.7305 h -37.449 c -3.1641,0 -5.7266,2.5664 -5.7266,5.7305 v 15.238 c 0.0039,3.1602 2.5664,5.7227 5.7266,5.7305 z m 1.5625,-19.406 h 34.27 l 0.0039,12.113 h -34.273 z m 35.887,81.082 c 3.1641,0 5.7305,-2.5664 5.7305,-5.7305 V 73.2195 C 74.4732,70.0593 71.9107,67.4968 68.7505,67.489 h -37.449 c -3.1602,0.0078 -5.7227,2.5703 -5.7266,5.7305 v 15.238 c 0,3.1641 2.5625,5.7305 5.7266,5.7305 z M 32.8635,74.782 h 34.27 l 0.0039,12.113 H 32.8644 Z M 9.4685,85.419 h 9.2812 V 78.126 H 13.113 V 54.169 h 12.5 v 3.9688 c 0,3.1641 2.5664,5.7266 5.7305,5.7266 h 37.406 c 3.1641,0 5.7305,-2.5625 5.7305,-5.7266 v -15.312 c -0.0078,-3.1641 -2.5703,-5.7266 -5.7305,-5.7305 h -37.449 c -3.1602,0.0039 -5.7227,2.5664 -5.7266,5.7305 v 3.9805 L 9.4689,46.8024 c -2.0117,0 -3.6445,1.6328 -3.6445,3.6484 v 31.25 c -0.019531,0.97656 0.35547,1.9258 1.0391,2.625 0.6875,0.69922 1.625,1.0938 2.6055,1.0938 z m 23.395,-41.031 h 34.27 l 0.0039,12.113 h -34.273 z"
   stroke-linecap="round"
   id="path9" />
</g><g
       id="g1"
       transform="translate(-1.3025702)"><g
         transform="matrix(0.86595759,0,0,0.86595759,95.13519,148.96319)"
         id="g8"><path
           fill="#468966"
           opacity="1"
           d="m -102.98,-1.4293257 v 4.2632601 h 15.482367 v -4.2632601 h -5.609553 V -24.316303 h 5.609553 v -4.263261 H -102.98 v 4.263261 h 5.609553 v 22.8869773 z"
           id="path1"
           style="stroke-width:0.897529" /><path
           fill="#468966"
           opacity="1"
           d="m -85.253812,-19.828661 c 0,9.648432 15.033603,7.404611 15.033603,13.4629284 0,2.9169678 -2.019439,4.9364069 -4.936407,4.9364069 h -9.648431 v 4.2632601 h 9.648431 c 5.160789,0 9.199667,-4.0388779 9.199667,-9.199667 0,-9.6484314 -15.033602,-7.4046104 -15.033602,-13.4629284 0,-2.692585 1.795057,-4.487642 4.487642,-4.487642 h 8.750903 v -4.263261 h -8.750903 c -4.936407,0 -8.750903,3.814496 -8.750903,8.750903 z"
           id="path2"
           style="stroke-width:0.897529" /><path
           fill="#468966"
           opacity="1"
           d="m -61.020542,-7.038879 c 0,5.8339355 4.487643,10.3215783 10.321578,10.3215783 5.833936,0 10.321578,-4.4876428 10.321578,-10.3215783 V -18.70675 c 0,-5.833935 -4.487642,-10.321578 -10.321578,-10.321578 -5.833935,0 -10.321578,4.487643 -10.321578,10.321578 z m 16.379896,0 c 0,3.365732 -2.692586,6.05831757 -6.058318,6.05831757 -3.365732,0 -6.058317,-2.69258557 -6.058317,-6.05831757 V -18.70675 c 0,-3.365732 2.692585,-6.058318 6.058317,-6.058318 3.365732,0 6.058318,2.692586 6.058318,6.058318 z"
           id="path3"
           style="stroke-width:0.897529" /><path
           fill="#468966"
           opacity="1"
           d=""
           id="path4" /><path
           fill="#468966"
           opacity="1"
           d="M -10.31018,-1.4293257 H -23.99749 V -7.038879 l 7.40461,-3.14135 c 4.038878,-1.705304 6.7314639,-4.487643 6.7314639,-9.199667 0,-5.160789 -4.0388779,-9.199668 -9.1996669,-9.199668 h -8.302139 v 4.263261 h 8.302139 c 2.692585,0 4.936406,2.243821 4.936406,4.936407 0,2.692585 -1.570674,4.26326 -4.712024,5.609553 l -9.42405,4.0388786 V 2.8339344 h 17.950571 z"
           id="path5"
           style="stroke-width:0.897529" /><path
           fill="#468966"
           opacity="1"
           d="m 3.6015117,-9.2827002 c 0.8975286,0 1.570675,-0.2243821 1.570675,-0.2243821 L -1.110513,2.8339344 H 3.6015117 L 11.679268,-13.321579 c 0,0 1.795057,-2.916967 1.795057,-5.833935 0,-5.385171 -4.4876421,-9.872814 -9.8728133,-9.872814 -5.3851711,0 -9.8728137,4.487643 -9.8728137,9.872814 0,5.385171 4.4876426,9.8728138 9.8728137,9.8728138 z m 0,-4.2632608 c -3.14134978,0 -5.6095532,-2.468203 -5.6095532,-5.609553 0,-3.14135 2.46820342,-5.609554 5.6095532,-5.609554 3.1413499,0 5.6095533,2.468204 5.6095533,5.609554 0,3.14135 -2.4682034,5.609553 -5.6095533,5.609553 z"
           id="path6"
           style="stroke-width:0.897529" /><path
           fill="#468966"
           opacity="1"
           d="M 31.200514,-1.4293257 H 25.59096 V -28.579564 h -9.872813 v 4.263261 H 21.3277 v 22.8869773 h -5.609553 v 4.2632601 h 15.482367 z"
           id="path7"
           style="stroke-width:0.897529" /><path
           fill="#468966"
           opacity="1"
           d="M 51.980478,-1.3903799 H 46.370924 V -28.540619 h -9.872813 v 4.263262 h 5.609553 V -1.3903799 H 36.498111 V 2.87288 h 15.482367 z"
           id="path7-7"
           style="stroke-width:0.897529" /><path
           fill="#468966"
           opacity="1"
           d="m 74.418691,-19.116568 c 0,-5.609554 -4.263261,-9.872815 -9.872814,-9.872815 -5.609553,0 -9.872814,4.263261 -9.872814,9.872815 v 12.5653993 c 0,5.60955381 4.263261,9.8728137 9.872814,9.8728137 5.609553,0 9.872814,-4.26325989 9.872814,-9.8728137 z M 70.15543,-6.7755507 60.955763,-23.379829 c 0,0 1.346293,-1.346293 3.590114,-1.346293 3.14135,0 5.609553,2.468204 5.609553,5.609554 z m -2.019439,4.4876429 c 0,0 -1.346293,1.34629291 -3.590114,1.34629291 -3.14135,0 -5.609553,-2.46820391 -5.609553,-5.60955381 V -18.892186 Z"
           id="path8-9"
           style="stroke-width:0.897529" /></g><g
         transform="matrix(0.77722163,0,0,0.77722163,94.410317,169.59258)"
         id="g13"><path
           fill="#468966"
           opacity="1"
           d="m 40.77,-15.43 h -6.4 v 3.6 h 2.8 v 24.4 h 3.6 z"
           id="path10" /><path
           fill="#468966"
           opacity="1"
           d="m 51.17,-15.43 h -3.6 v 4 h 3.6 z m -7.2,24.4 v 3.6 h 10.8 v -3.6 h -3.6 v -16 h -6.4 v 3.6 h 2.8 v 12.4 z"
           id="path11" /><path
           fill="#468966"
           opacity="1"
           d="m 58.37,5.77 c 0,4 2.8,6.8 6.8,6.8 h 2 v -3.6 h -2 c -1.8,0 -3.2,-1.4 -3.2,-3.2 v -9.2 h 4 v -3.6 h -4 v -6.4 h -3.6 v 6.4 h -3.6 v 3.6 h 3.6 z"
           id="path12" /><path
           fill="#468966"
           opacity="1"
           d="m 69.57,5.77 c 0,4 2.8,6.8 6.8,6.8 h 6.4 v -3.6 h -6.4 c -1.8,0 -3.2,-1.4 -3.2,-3.2 v -1 h 10.8 v -5 c 0,-4.2 -3,-7.2 -7.2,-7.2 -4.2,0 -7.2,3 -7.2,7.2 z m 7.2,-9.6 c 2,0 3.6,1.6 3.6,3.6 v 1.6 h -7.2 v -1.6 c 0,-2 1.6,-3.6 3.6,-3.6 z"
           id="path13" /></g></g></g></g></svg>
